{
  "accessors": [
    {
      "bufferView": 2,
      "componentType": 5126,
      "count": 39128,
      "max": [
        0.24938006699085236,
        0.007538586854934692,
        1.8790920972824097
      ],
      "min": [
        -0.24899210035800934,
        -0.3819113075733185,
        -0.008327629417181015
      ],
      "type": "VEC3"
    },
    {
      "bufferView": 2,
      "byteOffset": 469536,
      "componentType": 5126,
      "count": 39128,
      "max": [
        0.9999587535858154,
        0.9999973773956299,
        0.9997557401657104
      ],
      "min": [
        -0.999970555305481,
        -0.9999837875366211,
        -0.9999974966049194
      ],
      "type": "VEC3"
    },
    {
      "bufferView": 3,
      "componentType": 5126,
      "count": 39128,
      "max": [
        0.9999998211860657,
        1.0,
        0.999999463558197,
        1.0
      ],
      "min": [
        -0.999999463558197,
        -0.9999712109565735,
        -1.0,
        -1.0
      ],
      "type": "VEC4"
    },
    {
      "bufferView": 1,
      "componentType": 5126,
      "count": 39128,
      "max": [
        1.0000001192092896,
        1.0000001192092896
      ],
      "min": [
        0.0,
        0.0
      ],
      "type": "VEC2"
    },
    {
      "bufferView": 0,
      "componentType": 5125,
      "count": 137352,
      "type": "SCALAR"
    },
    {
      "bufferView": 2,
      "byteOffset": 939072,
      "componentType": 5126,
      "count": 23988,
      "max": [
        0.3818487823009491,
        -0.06988072395324707,
        1.9019876718521118
      ],
      "min": [
        -0.38358014822006226,
        -0.38921764492988586,
        0.748749315738678
      ],
      "type": "VEC3"
    },
    {
      "bufferView": 2,
      "byteOffset": 1226928,
      "componentType": 5126,
      "count": 23988,
      "max": [
        1.0,
        0.9999985694885254,
        0.997202455997467
      ],
      "min": [
        -1.0,
        -0.9999995231628418,
        -0.9995996952056885
      ],
      "type": "VEC3"
    },
    {
      "bufferView": 3,
      "byteOffset": 626048,
      "componentType": 5126,
      "count": 23988,
      "max": [
        1.0,
        0.9997957944869995,
        0.9998847842216492,
        1.0
      ],
      "min": [
        -0.9999999403953552,
        -0.9999807476997375,
        -0.9999503493309021,
        -1.0
      ],
      "type": "VEC4"
    },
    {
      "bufferView": 1,
      "byteOffset": 313024,
      "componentType": 5126,
      "count": 23988,
      "max": [
        0.8167255520820618,
        0.854548454284668
      ],
      "min": [
        0.1801106035709381,
        0.1513773500919342
      ],
      "type": "VEC2"
    },
    {
      "bufferView": 0,
      "byteOffset": 549408,
      "componentType": 5125,
      "count": 79248,
      "type": "SCALAR"
    }
  ],
  "asset": {
    "extras": {
      "author": "Kless Gyzen (https://sketchfab.com/klessgyzen)",
      "license": "CC-BY-4.0 (http://creativecommons.org/licenses/by/4.0/)",
      "source": "https://sketchfab.com/3d-models/outdoor-hanging-lounge-chair-ed88609057db40bf94a5b79ff6485410",
      "title": "Outdoor Hanging Lounge Chair"
    },
    "generator": "Sketchfab-12.68.0",
    "version": "2.0"
  },
  "bufferViews": [
    {
      "buffer": 0,
      "byteLength": 866400,
      "name": "floatBufferViews",
      "target": 34963
    },
    {
      "buffer": 0,
      "byteLength": 504928,
      "byteOffset": 866400,
      "byteStride": 8,
      "name": "floatBufferViews",
      "target": 34962
    },
    {
      "buffer": 0,
      "byteLength": 1514784,
      "byteOffset": 1371328,
      "byteStride": 12,
      "name": "floatBufferViews",
      "target": 34962
    },
    {
      "buffer": 0,
      "byteLength": 1009856,
      "byteOffset": 2886112,
      "byteStride": 16,
      "name": "floatBufferViews",
      "target": 34962
    }
  ],
  "buffers": [
    {
      "byteLength": 3895968,
      "uri": "scene.bin"
    }
  ],
  "extensionsUsed": [
    "KHR_texture_transform"
  ],
  "images": [
    {
      "uri": "textures/Chair_Fabric_normal.png"
    },
    {
      "uri": "textures/Bamboo_baseColor.jpeg"
    },
    {
      "uri": "textures/Bamboo_normal.jpeg"
    }
  ],
  "materials": [
    {
      "doubleSided": true,
      "name": "Chair_Fabric",
      "normalTexture": {
        "extensions": {
          "KHR_texture_transform": {
            "scale": [
              2.8916959027652913,
              2.8916959027652913
            ]
          }
        },
        "index": 0
      },
      "pbrMetallicRoughness": {
        "baseColorFactor": [
          0.6435635529447916,
          0.6189004816889331,
          0.5115183234336591,
          1.0
        ],
        "metallicFactor": 0.0,
        "roughnessFactor": 0.1788854381999832
      }
    },
    {
      "doubleSided": true,
      "name": "Bamboo",
      "normalTexture": {
        "index": 2
      },
      "pbrMetallicRoughness": {
        "baseColorTexture": {
          "index": 1
        },
        "metallicFactor": 0.0,
        "roughnessFactor": 0.20979646013136122
      }
    }
  ],
  "meshes": [
    {
      "name": "Retopo_F_cloth_panel.001_Chair Fabric_0",
      "primitives": [
        {
          "attributes": {
            "NORMAL": 1,
            "POSITION": 0,
            "TANGENT": 2,
            "TEXCOORD_0": 3
          },
          "indices": 4,
          "material": 0,
          "mode": 4
        }
      ]
    },
    {
      "name": "Retopo_F_cloth_panel.001_Bamboo_0",
      "primitives": [
        {
          "attributes": {
            "NORMAL": 6,
            "POSITION": 5,
            "TANGENT": 7,
            "TEXCOORD_0": 8
          },
          "indices": 9,
          "material": 1,
          "mode": 4
        }
      ]
    }
  ],
  "nodes": [
    {
      "children": [
        1
      ],
      "matrix": [
        1.0,
        0.0,
        0.0,
        0.0,
        0.0,
        2.220446049250313e-16,
        -1.0,
        0.0,
        0.0,
        1.0,
        2.220446049250313e-16,
        0.0,
        0.0,
        0.0,
        0.0,
        1.0
      ],
      "name": "Sketchfab_model"
    },
    {
      "children": [
        2
      ],
      "matrix": [
        0.009999999776482582,
        0.0,
        0.0,
        0.0,
        0.0,
        0.0,
        0.009999999776482582,
        0.0,
        0.0,
        -0.009999999776482582,
        0.0,
        0.0,
        0.0,
        0.0,
        0.0,
        1.0
      ],
      "name": "4a1fd97d40fc4174b693928bb1c458d3.fbx"
    },
    {
      "children": [
        3
      ],
      "name": "RootNode"
    },
    {
      "children": [
        4,
        5
      ],
      "matrix": [
        137.6787109375,
        -2.920590952845754e-14,
        -2.153812918303181e-14,
        0.0,
        4.533360465261683e-14,
        63.143082780608374,
        204.16448663277987,
        0.0,
        -1.8161749739139674e-14,
        -110.91241312959019,
        34.30249696772836,
        0.0,
        0.0,
        0.0,
        0.0,
        1.0
      ],
      "name": "Retopo_F_cloth_panel.001"
    },
    {
      "mesh": 0,
      "name": "Retopo_F_cloth_panel.001_Chair Fabric_0"
    },
    {
      "mesh": 1,
      "name": "Retopo_F_cloth_panel.001_Bamboo_0"
    }
  ],
  "samplers": [
    {
      "magFilter": 9729,
      "minFilter": 9987,
      "wrapS": 10497,
      "wrapT": 10497
    }
  ],
  "scene": 0,
  "scenes": [
    {
      "name": "Sketchfab_Scene",
      "nodes": [
        0
      ]
    }
  ],
  "textures": [
    {
      "sampler": 0,
      "source": 0
    },
    {
      "sampler": 0,
      "source": 1
    },
    {
      "sampler": 0,
      "source": 2
    }
  ]
}
