{
  "accessors": [
    {
      "bufferView": 2,
      "componentType": 5126,
      "count": 14481,
      "max": [
        0.18671000003814697,
        0.06184599921107292,
        0.20662899315357208
      ],
      "min": [
        -0.13560199737548828,
        -0.06452199816703796,
        6.0999998822808266e-05
      ],
      "type": "VEC3"
    },
    {
      "bufferView": 2,
      "byteOffset": 173772,
      "componentType": 5126,
      "count": 14481,
      "max": [
        0.9999659061431885,
        0.9998906850814819,
        0.9999576807022095
      ],
      "min": [
        -0.9997525811195374,
        -0.9999927282333374,
        -0.9999699592590332
      ],
      "type": "VEC3"
    },
    {
      "bufferView": 3,
      "componentType": 5126,
      "count": 14481,
      "max": [
        0.9999027848243713,
        0.9999566078186035,
        0.9999358057975769,
        1.0
      ],
      "min": [
        -0.9998083114624023,
        -0.9999973773956299,
        -0.9999657869338989,
        -1.0
      ],
      "type": "VEC4"
    },
    {
      "bufferView": 1,
      "componentType": 5126,
      "count": 14481,
      "max": [
        0.9973949790000916,
        0.9970239996910095
      ],
      "min": [
        0.0026030000299215317,
        0.002604000037536025
      ],
      "type": "VEC2"
    },
    {
      "bufferView": 0,
      "componentType": 5125,
      "count": 74688,
      "type": "SCALAR"
    }
  ],
  "asset": {
    "extras": {
      "author": "inciprocal (https://sketchfab.com/inciprocal.com)",
      "license": "CC-BY-4.0 (http://creativecommons.org/licenses/by/4.0/)",
      "source": "https://sketchfab.com/3d-models/caterpillar-work-boot-d551ce74dcd24528a05cbb0f4b7434d7",
      "title": "Caterpillar Work Boot"
    },
    "generator": "Sketchfab-12.65.0",
    "version": "2.0"
  },
  "bufferViews": [
    {
      "buffer": 0,
      "byteLength": 298752,
      "name": "floatBufferViews",
      "target": 34963
    },
    {
      "buffer": 0,
      "byteLength": 115848,
      "byteOffset": 298752,
      "byteStride": 8,
      "name": "floatBufferViews",
      "target": 34962
    },
    {
      "buffer": 0,
      "byteLength": 347544,
      "byteOffset": 414600,
      "byteStride": 12,
      "name": "floatBufferViews",
      "target": 34962
    },
    {
      "buffer": 0,
      "byteLength": 231696,
      "byteOffset": 762144,
      "byteStride": 16,
      "name": "floatBufferViews",
      "target": 34962
    }
  ],
  "buffers": [
    {
      "byteLength": 993840,
      "uri": "scene.bin"
    }
  ],
  "extensionsRequired": [
    "KHR_materials_pbrSpecularGlossiness"
  ],
  "extensionsUsed": [
    "KHR_materials_pbrSpecularGlossiness"
  ],
  "images": [
    {
      "uri": "textures/sh_catWorkBoot_diffuse.jpeg"
    },
    {
      "uri": "textures/sh_catWorkBoot_specularGlossiness.png"
    },
    {
      "uri": "textures/sh_catWorkBoot_normal.jpeg"
    },
    {
      "uri": "textures/sh_catWorkBoot_occlusion.png"
    }
  ],
  "materials": [
    {
      "doubleSided": true,
      "extensions": {
        "KHR_materials_pbrSpecularGlossiness": {
          "diffuseFactor": [
            0.677,
            0.677,
            0.677,
            1.0
          ],
          "diffuseTexture": {
            "index": 0
          },
          "glossinessFactor": 1.0,
          "specularFactor": [
            0.373,
            0.373,
            0.373
          ],
          "specularGlossinessTexture": {
            "index": 1
          }
        }
      },
      "name": "sh_catWorkBoot",
      "normalTexture": {
        "index": 2
      },
      "occlusionTexture": {
        "index": 3
      }
    }
  ],
  "meshes": [
    {
      "name": "Object_0",
      "primitives": [
        {
          "attributes": {
            "NORMAL": 1,
            "POSITION": 0,
            "TANGENT": 2,
            "TEXCOORD_0": 3
          },
          "indices": 4,
          "material": 0,
          "mode": 4
        }
      ]
    }
  ],
  "nodes": [
    {
      "children": [
        1
      ],
      "matrix": [
        0.8747625350952148,
        -1.0759213004604606e-16,
        0.48455187678337097,
        0.0,
        0.48455187678337097,
        3.34240392126629e-17,
        -0.8747625350952148,
        0.0,
        7.7921889392708e-17,
        1.0,
        8.137205972766668e-17,
        0.0,
        -0.02598271705210209,
        -4.619759053355582e-18,
        0.020805545151233673,
        1.0
      ],
      "name": "Sketchfab_model"
    },
    {
      "children": [
        2
      ],
      "name": "sh_catWorkBoot.obj.cleaner.materialmerger.gles"
    },
    {
      "mesh": 0,
      "name": "Object_2"
    }
  ],
  "samplers": [
    {
      "magFilter": 9729,
      "minFilter": 9987,
      "wrapS": 10497,
      "wrapT": 10497
    }
  ],
  "scene": 0,
  "scenes": [
    {
      "name": "Sketchfab_Scene",
      "nodes": [
        0
      ]
    }
  ],
  "textures": [
    {
      "sampler": 0,
      "source": 0
    },
    {
      "sampler": 0,
      "source": 1
    },
    {
      "sampler": 0,
      "source": 2
    },
    {
      "sampler": 0,
      "source": 3
    }
  ]
}
